<?xml version="1.0" standalone="no"?>
<!DOCTYPE svg PUBLIC "-//W3C//DTD SVG 20010904//EN"
 "http://www.w3.org/TR/2001/REC-SVG-20010904/DTD/svg10.dtd">
<svg version="1.0" xmlns="http://www.w3.org/2000/svg"
 width="626.000000pt" height="626.000000pt" viewBox="0 0 626.000000 626.000000"
 preserveAspectRatio="xMidYMid meet">

<g transform="translate(0.000000,626.000000) scale(0.100000,-0.100000)"
fill="#000000" stroke="none">
<path d="M2890 5972 c-102 -59 -319 -184 -482 -277 -230 -132 -295 -173 -285
-182 12 -11 72 -46 462 -271 110 -63 209 -121 220 -128 11 -8 26 -14 33 -14 8
0 63 29 123 65 59 36 113 65 119 65 7 0 60 -29 119 -65 105 -63 137 -75 157
-56 5 5 153 92 329 194 358 205 365 210 365 218 0 3 -28 21 -62 40 -311 175
-582 329 -730 415 -97 57 -178 104 -180 104 -2 0 -86 -49 -188 -108z"/>
<path d="M1630 5274 c-102 -60 -311 -180 -720 -411 -140 -80 -272 -156 -293
-169 l-37 -24 2 -556 3 -556 193 -114 c107 -63 195 -114 198 -114 4 0 183
-107 253 -152 l46 -29 5 557 5 557 95 55 c197 115 283 162 292 162 6 0 92 -48
191 -106 244 -143 553 -323 832 -484 127 -73 262 -153 302 -177 39 -23 78 -43
86 -43 8 0 99 50 203 112 104 61 317 186 474 278 375 220 381 223 377 234 -2
5 -66 45 -143 89 -76 44 -239 138 -361 208 -122 71 -228 131 -236 134 -7 3
-83 -35 -167 -84 l-153 -91 -31 19 c-38 23 -237 138 -496 286 -107 61 -307
177 -445 257 -137 80 -279 161 -315 181 l-65 36 -95 -55z"/>
<path d="M4205 5201 c-121 -69 -278 -161 -348 -202 l-129 -76 39 -24 c21 -13
279 -162 573 -330 l535 -306 3 -558 2 -557 28 18 c15 10 148 87 295 171 147
84 293 169 323 188 l54 35 0 557 -1 558 -307 174 c-169 96 -340 194 -379 218
-40 24 -75 43 -77 43 -3 0 -86 47 -185 105 -99 58 -186 107 -193 109 -7 3
-112 -53 -233 -123z"/>
<path d="M1693 3794 l-113 -66 0 -832 0 -832 298 -197 c163 -107 305 -199 315
-202 20 -8 18 -75 17 617 0 251 3 459 8 462 9 5 47 -25 218 -174 60 -52 179
-155 264 -229 85 -75 203 -179 262 -233 59 -54 112 -98 118 -98 11 0 7 -4 375
320 410 361 478 420 487 420 5 0 8 -245 8 -545 0 -358 3 -545 10 -545 6 0 146
89 313 199 l302 199 0 773 0 773 -95 59 c-52 33 -118 73 -146 89 l-52 29 -84
-68 c-214 -171 -405 -328 -867 -711 -128 -107 -239 -195 -246 -196 -24 -2
-868 708 -1179 991 -38 35 -76 63 -85 63 -9 0 -67 -30 -128 -66z"/>
<path d="M582 2367 l3 -792 80 -46 c44 -25 121 -70 170 -99 50 -29 110 -64
135 -78 25 -13 124 -71 221 -128 96 -56 263 -153 370 -214 107 -62 210 -122
229 -133 19 -11 96 -55 170 -97 74 -42 212 -121 305 -175 94 -54 204 -116 245
-140 128 -71 362 -205 496 -284 39 -22 74 -41 78 -41 3 0 39 20 79 44 67 40
221 129 327 188 25 14 227 130 450 258 223 128 425 244 450 258 56 31 380 220
690 402 129 76 294 171 365 212 l130 74 3 787 c1 479 -2 787 -7 787 -5 0 -49
-23 -98 -51 -48 -29 -130 -76 -181 -105 -103 -61 -305 -179 -369 -218 l-43
-25 0 -420 0 -420 -348 -207 c-191 -114 -385 -230 -432 -257 -47 -28 -117 -70
-156 -94 -40 -24 -77 -43 -83 -43 -8 0 -11 69 -11 234 0 129 -4 237 -8 240 -4
2 -38 -14 -74 -37 -36 -23 -97 -59 -135 -80 -37 -21 -95 -54 -128 -74 -240
-143 -413 -243 -424 -243 -7 0 -78 38 -157 85 -80 47 -149 85 -154 85 -4 0
-10 3 -12 8 -3 7 -40 30 -295 178 -165 95 -159 96 -148 -42 8 -97 -3 -354 -15
-354 -9 0 -83 43 -330 190 -80 48 -224 133 -320 190 -96 56 -219 130 -272 162
l-98 60 -2 421 -3 421 -105 64 c-138 84 -169 102 -270 158 -47 26 -128 74
-180 107 -52 32 -105 63 -117 68 l-23 9 2 -793z"/>
</g>
</svg>
